<svg width="100%" height="100%" viewBox="0 0 263 263" version="1.1" xmlns="http://www.w3.org/2000/svg"
     xml:space="preserve"
     style="fill-rule:evenodd;clip-rule:evenodd;stroke-linejoin:round;stroke-miterlimit:2;">
    <g transform="matrix(1,0,0,1,-0.531376,-1)">
        <g transform="matrix(4.18381,0,0,4.18381,-0.00857059,0.460053)">
            <g transform="matrix(1.01197,0,0,1.01197,-0.376927,-0.376927)">
                <path d="M62.5,31.5L62.447,29.509L62.246,27.518L61.934,25.574L61.475,23.635L60.916,21.744L60.251,19.857L59.432,18.07L58.508,16.283L57.489,14.594L56.359,12.958L55.081,11.427L53.75,9.949L52.32,8.569L50.836,7.242L49.252,6.066L47.562,4.995L45.825,4.023L44.035,3.155L42.192,2.392L40.296,1.776L38.406,1.269L36.463,0.908L34.467,0.652L32.471,0.5L30.528,0.5L28.532,0.652L26.536,0.908L24.593,1.269L22.703,1.776L20.807,2.392L18.964,3.155L17.175,4.023L15.437,4.995L13.748,6.066L12.164,7.242L10.68,8.569L9.249,9.949L7.919,11.427L6.641,12.958L5.51,14.594L4.492,16.283L3.567,18.07L2.749,19.857L2.084,21.744L1.524,23.635L1.065,25.574L0.753,27.518L0.553,29.509L0.5,31.5L0.553,33.492L0.753,35.483L1.065,37.421L1.524,39.366L2.084,41.251L2.749,43.144L3.567,44.931L4.492,46.718L5.51,48.407L6.641,50.037L7.919,51.568L9.249,53.052L10.68,54.432L12.164,55.759L13.748,56.935L15.437,58.006L17.175,58.972L18.964,59.846L20.807,60.609L22.703,61.22L24.593,61.732L26.536,62.093L28.532,62.343L30.528,62.5L32.471,62.5L34.467,62.343L36.463,62.093L38.406,61.732L40.296,61.22L42.192,60.609L44.035,59.846L45.825,58.972L47.562,58.006L49.252,56.935L50.836,55.759L52.32,54.432L53.75,53.052L55.081,51.568L56.359,50.037L57.489,48.407L58.508,46.718L59.432,44.931L60.251,43.144L60.916,41.251L61.475,39.366L61.934,37.421L62.246,35.483L62.447,33.492L62.5,31.5ZM30.715,5.421L29.032,5.549L27.299,5.771L25.682,6.072L24.102,6.495L22.511,7.012L20.981,7.646L19.452,8.388L17.957,9.223L16.536,10.125L15.277,11.059L14.029,12.175L12.79,13.37L11.638,14.65L10.562,15.94L9.645,17.266L8.789,18.687L7.992,20.226L7.316,21.703L6.767,23.261L6.281,24.901L5.895,26.532L5.634,28.154L5.467,29.821L5.422,31.5L5.467,33.18L5.634,34.845L5.895,36.464L6.281,38.099L6.767,39.734L7.317,41.301L7.992,42.775L8.789,44.314L9.643,45.732L10.559,47.052L11.641,48.348L12.794,49.634L14.029,50.826L15.277,51.942L16.536,52.876L17.952,53.774L19.452,54.608L20.987,55.358L22.506,55.987L24.102,56.501L25.688,56.931L27.292,57.229L29.031,57.446L30.721,57.579L32.278,57.579L33.968,57.446L35.707,57.229L37.311,56.931L38.897,56.501L40.493,55.987L42.012,55.358L43.548,54.608L45.047,53.774L46.465,52.876L47.723,51.942L48.97,50.826L50.205,49.634L51.36,48.348L52.44,47.053L53.356,45.732L54.211,44.314L55.007,42.775L55.683,41.3L56.233,39.735L56.718,38.1L57.104,36.464L57.365,34.844L57.533,33.179L57.578,31.5L57.533,29.822L57.365,28.156L57.104,26.532L56.718,24.9L56.233,23.26L55.685,21.704L55.007,20.226L54.211,18.687L53.354,17.266L52.438,15.939L51.363,14.651L50.209,13.37L48.97,12.175L47.723,11.059L46.465,10.125L45.042,9.223L43.548,8.388L42.019,7.646L40.488,7.012L38.897,6.495L37.317,6.072L35.7,5.771L33.967,5.549L32.284,5.421L30.715,5.421Z"
                      style="fill:rgb(59,164,166);"/>
            </g>
        </g>
        <g transform="matrix(4.18381,0,0,4.18381,-0.00857059,0.460053)">
            <g transform="matrix(1,0,0,1,0,2.3814)">
                <path d="M36.41,18.885L35.898,18.937L35.439,19.141L35.032,19.45L34.72,19.857L34.52,20.317L34.467,20.824L34.414,20.824L34.414,23.735L41.068,23.735L39.943,31.139L34.414,31.139L34.414,50.141L26.995,50.141L26.995,31.139L22.344,31.139L22.344,23.735L26.995,23.735L26.995,18.885L27.049,18.885L27.101,17.913L27.307,16.947L27.613,16.079L28.02,15.16L28.585,14.391L29.197,13.628L29.963,13.011L30.781,12.453L31.653,12.044L32.524,11.736L33.496,11.533L34.467,11.48L34.467,11.427L40.915,11.427L40.915,18.832L36.41,18.832"
                      style="fill:rgb(59,164,166);fill-rule:nonzero;"/>
            </g>
        </g>
    </g>
</svg>
