<?xml version="1.0" encoding="UTF-8" standalone="no"?>
<!DOCTYPE svg PUBLIC "-//W3C//DTD SVG 1.1//EN" "http://www.w3.org/Graphics/SVG/1.1/DTD/svg11.dtd">
<svg width="100%" height="100%" viewBox="0 0 259 259" version="1.1" xmlns="http://www.w3.org/2000/svg" xmlns:xlink="http://www.w3.org/1999/xlink" xml:space="preserve" xmlns:serif="http://www.serif.com/" style="fill-rule:evenodd;clip-rule:evenodd;stroke-linejoin:round;stroke-miterlimit:2;">
    <g transform="matrix(1,0,0,1,9.85463e-06,0)">
        <g transform="matrix(4.16667,0,0,4.16667,-9.85463e-06,0)">
            <path d="M31,0C22.581,0 21.525,0.036 18.218,0.187C14.918,0.337 12.665,0.862 10.693,1.628C8.655,2.42 6.926,3.48 5.203,5.204C3.479,6.927 2.419,8.656 1.627,10.694C0.861,12.666 0.336,14.919 0.186,18.219C0.035,21.526 0,22.582 0,31C0,39.419 0.035,40.475 0.186,43.782C0.336,47.082 0.861,49.334 1.627,51.307C2.419,53.345 3.479,55.074 5.203,56.797C6.926,58.521 8.655,59.581 10.693,60.373C12.665,61.139 14.918,61.664 18.218,61.814C21.525,61.965 22.581,62 31,62C39.418,62 40.474,61.965 43.781,61.814C47.081,61.664 49.334,61.139 51.306,60.373C53.344,59.581 55.073,58.521 56.796,56.797C58.52,55.074 59.58,53.345 60.372,51.307C61.138,49.334 61.663,47.082 61.813,43.782C61.963,40.475 62,39.419 62,31C62,22.582 61.963,21.526 61.813,18.219C61.663,14.919 61.138,12.666 60.372,10.694C59.58,8.656 58.52,6.927 56.796,5.204C55.073,3.48 53.344,2.42 51.306,1.628C49.334,0.862 47.081,0.337 43.781,0.187C40.474,0.036 39.418,0 31,0ZM31,5.586C39.277,5.586 40.257,5.618 43.526,5.767C46.548,5.905 48.19,6.41 49.283,6.834C50.729,7.396 51.762,8.068 52.847,9.153C53.931,10.238 54.603,11.27 55.166,12.718C55.59,13.81 56.095,15.451 56.233,18.474C56.382,21.743 56.414,22.723 56.414,31C56.414,39.278 56.382,40.258 56.233,43.527C56.095,46.549 55.59,48.191 55.166,49.284C54.603,50.73 53.931,51.763 52.847,52.848C51.762,53.932 50.729,54.604 49.283,55.166C48.19,55.591 46.548,56.096 43.526,56.234C40.257,56.383 39.278,56.415 31,56.415C22.722,56.415 21.741,56.383 18.473,56.234C15.45,56.096 13.809,55.591 12.717,55.166C11.27,54.604 10.237,53.932 9.152,52.848C8.067,51.763 7.396,50.73 6.833,49.284C6.409,48.191 5.904,46.549 5.766,43.527C5.617,40.258 5.585,39.278 5.585,31C5.585,22.723 5.617,21.743 5.766,18.474C5.904,15.451 6.409,13.81 6.833,12.718C7.396,11.27 8.067,10.238 9.152,9.153C10.237,8.068 11.27,7.396 12.717,6.834C13.809,6.41 15.45,5.905 18.473,5.767C21.742,5.618 22.722,5.586 31,5.586Z" style="fill:rgb(59,164,166);fill-rule:nonzero;"/>
        </g>
        <g transform="matrix(4.16667,0,0,4.16667,-9.85463e-06,0)">
            <path d="M31,41.333C25.293,41.333 20.666,36.707 20.666,31C20.666,25.293 25.293,20.667 31,20.667C36.707,20.667 41.333,25.293 41.333,31C41.333,36.707 36.707,41.333 31,41.333ZM31,15.082C22.208,15.082 15.081,22.208 15.081,31C15.081,39.792 22.208,46.919 31,46.919C39.792,46.919 46.918,39.792 46.918,31C46.918,22.208 39.792,15.082 31,15.082Z" style="fill:rgb(59,164,166);fill-rule:nonzero;"/>
        </g>
        <g transform="matrix(4.16667,0,0,4.16667,-9.85463e-06,0)">
            <path d="M51.267,14.453C51.267,16.507 49.602,18.173 47.547,18.173C45.493,18.173 43.828,16.507 43.828,14.453C43.828,12.398 45.493,10.732 47.547,10.732C49.602,10.732 51.267,12.398 51.267,14.453Z" style="fill:rgb(59,164,166);fill-rule:nonzero;"/>
        </g>
    </g>
</svg>
