<svg width="100%" height="100%" viewBox="0 0 100 34" version="1.1" xmlns="http://www.w3.org/2000/svg" xmlns:xlink="http://www.w3.org/1999/xlink" xml:space="preserve" xmlns:serif="http://www.serif.com/" style="fill-rule:evenodd;clip-rule:evenodd;stroke-linejoin:round;stroke-miterlimit:2;">
    <g transform="matrix(1,0,0,1,-8257.35,-2069.26)">
        <g transform="matrix(0.157709,0,0,0.0685304,7804.55,2009.57)">
            <g transform="matrix(179.907,0,0,414.019,3045.17,1232)">
                <path d="M0.421,-0.152L0.177,-0.152L0.128,0.001C0.122,0.004 0.116,0.006 0.109,0.007C0.102,0.008 0.094,0.009 0.085,0.009C0.068,0.009 0.055,0.005 0.044,-0.002C0.033,-0.009 0.028,-0.02 0.028,-0.035C0.028,-0.042 0.029,-0.05 0.031,-0.057C0.033,-0.064 0.036,-0.071 0.039,-0.08C0.048,-0.108 0.06,-0.144 0.076,-0.189C0.091,-0.233 0.108,-0.28 0.126,-0.329C0.143,-0.378 0.161,-0.427 0.179,-0.474C0.197,-0.522 0.213,-0.563 0.226,-0.597C0.233,-0.601 0.243,-0.605 0.257,-0.609C0.271,-0.612 0.285,-0.614 0.3,-0.614C0.319,-0.614 0.337,-0.611 0.352,-0.606C0.367,-0.601 0.378,-0.591 0.383,-0.578C0.398,-0.54 0.414,-0.497 0.431,-0.449C0.448,-0.4 0.466,-0.35 0.483,-0.299C0.5,-0.248 0.517,-0.197 0.533,-0.148C0.549,-0.099 0.563,-0.054 0.576,-0.014C0.57,-0.007 0.562,-0.002 0.553,0.002C0.543,0.007 0.531,0.009 0.518,0.009C0.5,0.009 0.487,0.005 0.479,-0.002C0.471,-0.009 0.464,-0.02 0.459,-0.037L0.421,-0.152ZM0.299,-0.521C0.292,-0.503 0.285,-0.483 0.277,-0.46C0.269,-0.437 0.261,-0.413 0.252,-0.389C0.243,-0.364 0.235,-0.338 0.226,-0.313C0.217,-0.287 0.209,-0.262 0.201,-0.238L0.398,-0.238C0.389,-0.265 0.381,-0.292 0.372,-0.319C0.363,-0.345 0.354,-0.371 0.345,-0.396C0.337,-0.421 0.329,-0.444 0.322,-0.466C0.315,-0.487 0.309,-0.506 0.304,-0.521L0.299,-0.521Z" style="fill:white;fill-rule:nonzero;"/>
            </g>
            <g transform="matrix(179.907,0,0,414.019,3149.88,1232)">
                <path d="M0.058,-0.216C0.055,-0.221 0.052,-0.228 0.05,-0.234C0.048,-0.242 0.047,-0.249 0.047,-0.258C0.047,-0.273 0.051,-0.284 0.059,-0.291C0.066,-0.298 0.077,-0.302 0.09,-0.302L0.322,-0.302C0.324,-0.297 0.326,-0.291 0.329,-0.283C0.331,-0.277 0.332,-0.269 0.332,-0.261C0.332,-0.246 0.328,-0.235 0.321,-0.228C0.314,-0.22 0.303,-0.216 0.29,-0.216L0.058,-0.216Z" style="fill:white;fill-rule:nonzero;"/>
            </g>
            <g transform="matrix(179.907,0,0,414.019,3218.06,1232)">
                <path d="M0.529,-0.453C0.529,-0.424 0.522,-0.398 0.507,-0.375C0.492,-0.352 0.469,-0.333 0.437,-0.32C0.476,-0.307 0.504,-0.288 0.524,-0.262C0.543,-0.236 0.552,-0.206 0.552,-0.171C0.552,-0.108 0.53,-0.062 0.485,-0.033C0.44,-0.003 0.375,0.012 0.291,0.012C0.265,0.012 0.237,0.011 0.209,0.008C0.18,0.005 0.153,0 0.128,-0.007C0.097,-0.016 0.082,-0.033 0.082,-0.06L0.082,-0.56C0.082,-0.571 0.085,-0.58 0.092,-0.587C0.098,-0.593 0.107,-0.598 0.118,-0.601C0.141,-0.608 0.166,-0.613 0.194,-0.616C0.221,-0.619 0.251,-0.62 0.283,-0.62C0.361,-0.62 0.422,-0.606 0.465,-0.579C0.507,-0.552 0.529,-0.51 0.529,-0.453ZM0.443,-0.174C0.443,-0.205 0.432,-0.229 0.409,-0.247C0.386,-0.264 0.354,-0.273 0.311,-0.273L0.187,-0.273L0.187,-0.083C0.201,-0.08 0.218,-0.077 0.237,-0.076C0.256,-0.074 0.276,-0.073 0.295,-0.073C0.342,-0.073 0.379,-0.081 0.405,-0.098C0.43,-0.114 0.443,-0.139 0.443,-0.174ZM0.187,-0.354L0.306,-0.354C0.344,-0.354 0.373,-0.362 0.392,-0.379C0.411,-0.396 0.421,-0.418 0.421,-0.447C0.421,-0.506 0.375,-0.535 0.283,-0.535C0.264,-0.535 0.246,-0.534 0.23,-0.533C0.214,-0.532 0.2,-0.53 0.187,-0.528L0.187,-0.354Z" style="fill:white;fill-rule:nonzero;"/>
            </g>
            <g transform="matrix(179.907,0,0,414.019,3326.73,1232)">
                <path d="M0.14,0.001C0.123,0.001 0.109,-0.004 0.098,-0.015C0.087,-0.026 0.082,-0.04 0.082,-0.057L0.082,-0.607C0.087,-0.608 0.095,-0.61 0.103,-0.612C0.113,-0.613 0.122,-0.614 0.132,-0.614C0.151,-0.614 0.166,-0.61 0.175,-0.603C0.185,-0.596 0.19,-0.583 0.19,-0.564L0.19,-0.089L0.461,-0.089C0.464,-0.084 0.467,-0.078 0.47,-0.071C0.473,-0.064 0.474,-0.055 0.474,-0.046C0.474,-0.031 0.47,-0.019 0.463,-0.011C0.456,-0.003 0.446,0.001 0.434,0.001L0.14,0.001Z" style="fill:white;fill-rule:nonzero;"/>
            </g>
            <g transform="matrix(179.907,0,0,414.019,3417.4,1232)">
                <path d="M0.14,0.001C0.123,0.001 0.109,-0.004 0.098,-0.015C0.087,-0.026 0.082,-0.04 0.082,-0.057L0.082,-0.55C0.082,-0.567 0.087,-0.581 0.098,-0.592C0.109,-0.602 0.123,-0.607 0.14,-0.607L0.471,-0.607C0.474,-0.603 0.477,-0.597 0.48,-0.59C0.482,-0.583 0.483,-0.575 0.483,-0.566C0.483,-0.551 0.48,-0.54 0.472,-0.532C0.466,-0.524 0.456,-0.52 0.444,-0.52L0.188,-0.52L0.188,-0.354L0.441,-0.354C0.444,-0.35 0.447,-0.344 0.45,-0.337C0.452,-0.33 0.453,-0.322 0.453,-0.313C0.453,-0.298 0.45,-0.286 0.443,-0.279C0.436,-0.272 0.426,-0.268 0.414,-0.268L0.188,-0.268L0.188,-0.086L0.476,-0.086C0.479,-0.082 0.481,-0.076 0.484,-0.069C0.487,-0.062 0.488,-0.054 0.488,-0.045C0.488,-0.03 0.485,-0.018 0.477,-0.011C0.47,-0.003 0.461,0.001 0.449,0.001L0.14,0.001Z" style="fill:white;fill-rule:nonzero;"/>
            </g>
        </g>
        <g transform="matrix(1,-0,-0,1,8257.35,2069.26)">
            <use xlink:href="#_Image1" x="-0" y="-0" width="21.447px" height="33.058px" transform="matrix(0.974868,0,0,0.972293,0,0)"/>
        </g>
        <g transform="matrix(0.0453966,0,0,0.0453966,8043.31,1892.98)">
            <path d="M4803.4,4071.98C4810.13,4052.46 4814.68,4035.06 4814.98,4020.84C4816.16,3965.52 4751.59,3950.8 4751.59,3950.8C4751.59,3950.8 4826.3,3881.78 4884.69,3883.02C4943.08,3884.25 4988.33,3933.83 5008.39,3988.68C5032.73,4055.23 5069.61,4133.93 5088.98,4224.75C5120.79,4257.06 5147.73,4299.86 5160.93,4323.69C5184.63,4366.47 5187.24,4448.18 5187.24,4448.18C5187.24,4448.18 5157.36,4401.56 5122.49,4380.92C5116.56,4377.41 5109.29,4374.2 5101.12,4371.13C5093.77,4505.9 5037.13,4572.01 4979.03,4594.86C4918.42,4618.7 4834.97,4610.17 4714.81,4607.62C4745.77,4589.98 4767.02,4573.19 4771.72,4531.31C4776.43,4489.43 4733.71,4359.09 4741.02,4269.24C4741.02,4269.24 4741.09,4268.46 4741.09,4268.46L4741.1,4268.29L4741.11,4268.19L4741.13,4268.02L4741.15,4267.67L4741.19,4267.3L4741.2,4267.13L4741.21,4267.03C4741.24,4266.72 4741.27,4266.4 4741.3,4266.09L4741.3,4266.07L4741.31,4266.01L4741.38,4265.32L4741.4,4265.14L4741.41,4265.02L4741.42,4264.85L4741.46,4264.53L4741.5,4264.13L4741.52,4263.96L4741.53,4263.87C4741.56,4263.56 4741.59,4263.25 4741.63,4262.93L4741.63,4262.9L4741.64,4262.79L4741.71,4262.17L4741.73,4261.97L4741.75,4261.84L4741.77,4261.68L4741.8,4261.39L4741.85,4260.95L4741.87,4260.78L4741.88,4260.7C4741.92,4260.39 4741.96,4260.07 4742,4259.76L4742,4259.72L4742.02,4259.58L4742.09,4259.02L4742.12,4258.79L4742.14,4258.65L4742.16,4258.5L4742.19,4258.23L4742.26,4257.76L4742.28,4257.59L4742.29,4257.53C4742.33,4257.21 4742.37,4256.89 4742.41,4256.57L4742.42,4256.52L4742.44,4256.36L4742.51,4255.85L4742.55,4255.6L4742.57,4255.46L4742.59,4255.31L4742.63,4255.06L4742.7,4254.55L4742.72,4254.39L4742.73,4254.34C4742.78,4254.02 4742.82,4253.7 4742.87,4253.38L4742.88,4253.32L4742.91,4253.15L4742.98,4252.68L4743.02,4252.41L4743.05,4252.25L4743.07,4252.11L4743.1,4251.89L4743.19,4251.32L4743.21,4251.18L4743.22,4251.14C4743.27,4250.82 4743.32,4250.5 4743.37,4250.19L4743.38,4250.11L4743.41,4249.93L4743.48,4249.5L4743.53,4249.2L4743.56,4249.04L4743.58,4248.91L4743.62,4248.7L4743.72,4248.08L4743.74,4247.97L4743.75,4247.94C4743.8,4247.62 4743.86,4247.3 4743.91,4246.98L4743.93,4246.89L4743.96,4246.71L4744.03,4246.31L4744.09,4245.99L4744.12,4245.82L4744.14,4245.7L4744.17,4245.51L4744.3,4244.81L4744.31,4244.74L4744.32,4244.73C4744.37,4244.41 4744.43,4244.08 4744.49,4243.77L4744.51,4243.67L4744.55,4243.49L4744.61,4243.12L4744.68,4242.76L4744.71,4242.59L4744.73,4242.48C4744.8,4242.16 4744.86,4241.84 4744.92,4241.51L4745.08,4240.72L4745.11,4240.55L4745.13,4240.44L4745.17,4240.26L4745.24,4239.91L4745.31,4239.53L4745.35,4239.36L4745.37,4239.26C4745.43,4238.94 4745.5,4238.62 4745.57,4238.29L4745.57,4238.28L4745.58,4238.21L4745.73,4237.51L4745.77,4237.32L4745.79,4237.2L4745.83,4237.03L4745.9,4236.71L4745.98,4236.3L4746.02,4236.12L4746.04,4236.03C4746.11,4235.71 4746.18,4235.39 4746.25,4235.07L4746.25,4235.04L4746.28,4234.92L4746.41,4234.3L4746.46,4234.09L4746.49,4233.96L4746.52,4233.79L4746.59,4233.5L4746.69,4233.05L4746.73,4232.88L4746.74,4232.8C4746.82,4232.48 4746.89,4232.16 4746.96,4231.83L4746.97,4231.79L4747,4231.65L4747.13,4231.09L4747.19,4230.85L4747.22,4230.71L4747.25,4230.56L4747.32,4230.28L4747.43,4229.8L4747.47,4229.63L4747.48,4229.57C4747.56,4229.24 4747.63,4228.92 4747.71,4228.6L4747.72,4228.54L4747.76,4228.39L4747.88,4227.87L4747.94,4227.61L4747.98,4227.46L4748.02,4227.31L4748.08,4227.06L4748.2,4226.53L4748.24,4226.38L4748.25,4226.33C4748.33,4226 4748.41,4225.68 4748.49,4225.36L4748.51,4225.29L4748.55,4225.12L4748.67,4224.64L4748.74,4224.36L4748.78,4224.21L4748.81,4224.07L4748.87,4223.84L4749.02,4223.26L4749.05,4223.12L4749.06,4223.09C4749.14,4222.76 4749.22,4222.44 4749.31,4222.11L4749.32,4222.04L4749.37,4221.86L4749.48,4221.42L4749.56,4221.11L4749.6,4220.95L4749.64,4220.82L4749.69,4220.61L4749.86,4219.97L4749.89,4219.86L4749.89,4219.84C4749.98,4219.52 4750.06,4219.19 4750.15,4218.86L4750.17,4218.78L4750.22,4218.6L4750.33,4218.19L4750.42,4217.86L4750.46,4217.69L4750.49,4217.57L4750.54,4217.39L4750.74,4216.66L4750.76,4216.6C4750.85,4216.27 4750.94,4215.94 4751.02,4215.62L4751.05,4215.52L4751.1,4215.34L4751.2,4214.96L4751.3,4214.6L4751.35,4214.43L4751.38,4214.32C4751.56,4213.67 4751.74,4213.02 4751.93,4212.36L4751.96,4212.26L4752,4212.09L4752.1,4211.73L4752.22,4211.34L4752.26,4211.17L4752.29,4211.08C4752.38,4210.75 4752.48,4210.43 4752.57,4210.1L4752.57,4210.08L4752.59,4210.02L4752.8,4209.31L4752.85,4209.11L4752.89,4209L4752.94,4208.83L4753.03,4208.5L4753.15,4208.08L4753.2,4207.91L4753.23,4207.83C4753.32,4207.5 4753.42,4207.18 4753.51,4206.86C4753.65,4206.39 4753.79,4205.91 4753.94,4205.44L4753.98,4205.27L4754.05,4205.07L4754.17,4204.65L4754.43,4203.8L4754.47,4203.66L4754.48,4203.62C4754.63,4203.14 4754.77,4202.67 4754.91,4202.2L4754.96,4202.04L4755.03,4201.83L4755.16,4201.39L4755.41,4200.6L4755.46,4200.43L4755.48,4200.38C4755.62,4199.9 4755.77,4199.43 4755.91,4198.96L4755.96,4198.82L4756.03,4198.6L4756.18,4198.13L4756.41,4197.39L4756.47,4197.2L4756.49,4197.13C4756.64,4196.67 4756.79,4196.2 4756.94,4195.73L4756.98,4195.59L4757.05,4195.37L4757.21,4194.87L4757.44,4194.18L4757.5,4193.98L4757.53,4193.9C4757.68,4193.43 4757.83,4192.97 4757.98,4192.5L4758.02,4192.37L4758.1,4192.14L4758.27,4191.62L4758.48,4190.97L4758.55,4190.76L4758.58,4190.66C4758.74,4190.2 4758.89,4189.73 4759.05,4189.27L4759.09,4189.15L4759.16,4188.92L4759.35,4188.36L4759.55,4187.76L4759.62,4187.53L4759.66,4187.43C4759.81,4186.97 4759.97,4186.51 4760.13,4186.04L4760.16,4185.93L4760.24,4185.7L4760.44,4185.12L4760.64,4184.55L4760.71,4184.32L4760.75,4184.2C4760.91,4183.74 4761.07,4183.28 4761.23,4182.82L4761.26,4182.71L4761.34,4182.49L4761.55,4181.87L4761.74,4181.34L4761.82,4181.11L4761.86,4180.98C4762.02,4180.52 4762.18,4180.06 4762.34,4179.6L4762.38,4179.51L4762.45,4179.28L4762.68,4178.64L4762.86,4178.14L4762.94,4177.9L4762.99,4177.76C4763.15,4177.3 4763.31,4176.85 4763.47,4176.39L4763.5,4176.3L4763.58,4176.08L4763.82,4175.4L4763.99,4174.94L4764.07,4174.7L4764.13,4174.54C4764.29,4174.09 4764.45,4173.64 4764.62,4173.18L4764.65,4173.11L4764.72,4172.88L4764.98,4172.18L4765.14,4171.74L4765.22,4171.51L4765.28,4171.34C4765.44,4170.89 4765.61,4170.44 4765.77,4169.99C4766.01,4169.34 4766.24,4168.69 4766.48,4168.04L4766.54,4167.88L4766.66,4167.57L4766.96,4166.73L4767.22,4166.04L4767.33,4165.74L4767.41,4165.53L4767.55,4165.14L4768.11,4163.63L4768.12,4163.6C4768.37,4162.95 4768.61,4162.29 4768.85,4161.64L4768.92,4161.47L4769.03,4161.17L4769.32,4160.39L4769.61,4159.63L4769.72,4159.34L4769.79,4159.16C4770.28,4157.86 4770.77,4156.57 4771.26,4155.27L4771.33,4155.1L4771.44,4154.81L4771.72,4154.07L4772.03,4153.24L4772.14,4152.98L4772.19,4152.83C4772.69,4151.53 4773.19,4150.23 4773.7,4148.93L4773.76,4148.76L4773.86,4148.51L4774.13,4147.81L4774.49,4146.87L4774.58,4146.65L4774.62,4146.55C4774.87,4145.89 4775.13,4145.24 4775.38,4144.59C4775.73,4143.71 4776.07,4142.82 4776.42,4141.94L4776.56,4141.58L4776.75,4141.09L4777.03,4140.38L4777.6,4138.93L4777.78,4138.48L4777.83,4138.34C4778.17,4137.48 4778.51,4136.63 4778.84,4135.78L4778.99,4135.4L4779.22,4134.82L4779.49,4134.15L4779.97,4132.93L4780.21,4132.33L4780.3,4132.1L4781.42,4129.28L4781.72,4128.52C4782.38,4126.87 4783.03,4125.22 4783.68,4123.59L4783.83,4123.21L4785.94,4117.91L4786.38,4116.82L4787.08,4115.06L4787.9,4112.98L4788.57,4111.29L4788.59,4111.24L4789.73,4108.37L4789.75,4108.31L4790.87,4105.47L4790.94,4105.3L4791.98,4102.65L4792.08,4102.39L4792.47,4101.4L4792.74,4100.69L4793.12,4099.72L4793.41,4098.97L4793.72,4098.18L4794.03,4097.37L4794.34,4096.59L4794.69,4095.67L4794.99,4094.9L4795.33,4094L4795.7,4093.03L4795.91,4092.5L4796.2,4091.72L4796.52,4090.88L4796.85,4090.02L4797.16,4089.2L4797.48,4088.36L4797.99,4086.99L4798.02,4086.9L4798.31,4086.12L4798.63,4085.26L4798.94,4084.44L4799.25,4083.59L4799.54,4082.81L4800.07,4081.36C4801.23,4078.18 4802.34,4075.06 4803.4,4071.98L4803.4,4071.98ZM4866.73,4358.77C4864.03,4378.09 4862.01,4397.68 4861.93,4416.82C4861.53,4506 4890.53,4584.16 4979.56,4568.16C5126.78,4541.7 5078.22,4237.88 5055.79,4174.78C5034.35,4114.48 4960.19,3982.65 4885.45,4018.51C4814.07,4052.77 4863.1,4125.14 4877.51,4210.47C4915.8,4243.22 4949.43,4296.13 4964.7,4323.69C4988.4,4366.47 4991.02,4448.18 4991.02,4448.18C4991.02,4448.18 4961.14,4401.56 4926.27,4380.92C4912.08,4372.53 4890.24,4365.83 4866.73,4358.77Z" style="fill:white;"/>
        </g>
    </g>
</svg>
